<svg preserveAspectRatio="none" overflow="visible" style="display: block;" width="24.1616" height="24.1616" viewBox="0 0 24.1616 24.1616" fill="none" xmlns="http://www.w3.org/2000/svg">
<path id="Vector" d="M0 5.3688V18.7928C0 19.504 0.136312 20.1896 0.408936 20.8467C0.681149 21.5048 1.06938 22.0853 1.57269 22.5894C2.07611 23.0923 2.65676 23.4811 3.31485 23.7525C3.97244 24.0259 4.65757 24.1616 5.36933 24.1616H18.7928C19.505 24.1616 20.1896 24.0259 20.8477 23.7525C21.5048 23.4811 22.0863 23.0923 22.5893 22.5894C23.0923 22.0853 23.4811 21.5048 23.7535 20.8467C24.0259 20.1896 24.1616 19.504 24.1616 18.7928V5.3688C24.1616 4.65664 24.0259 3.97203 23.7535 3.31392C23.4811 2.65685 23.0923 2.07631 22.5893 1.57229C22.0863 1.06927 21.5048 0.681575 20.8477 0.408118C20.1896 0.136753 19.505 0 18.7928 0H5.36933C4.65757 0 3.97244 0.136753 3.31485 0.408118C2.65676 0.681575 2.07611 1.06927 1.57269 1.57229C1.06938 2.07631 0.681149 2.65685 0.408936 3.31392C0.136312 3.97203 0 4.65664 0 5.3688Z" fill="#D9D9D9"/>
</svg>
